<!--?xml version="1.0" encoding="us-ascii" standalone="no"?--><svg xmlns="http://www.w3.org/2000/svg" xmlns:xlink="http://www.w3.org/1999/xlink" contentstyletype="text/css" height="638px" preserveAspectRatio="none" style="width:881px;height:638px;background:#FFFFFF;" version="1.1" viewBox="0 0 881 638" width="881px" zoomAndPan="magnify"><defs></defs><g><line style="stroke:#181818;stroke-width:0.5;stroke-dasharray:5.0,5.0;" x1="61" x2="61" y1="36.2969" y2="603.5547"></line><line style="stroke:#181818;stroke-width:0.5;stroke-dasharray:5.0,5.0;" x1="193" x2="193" y1="36.2969" y2="603.5547"></line><line style="stroke:#181818;stroke-width:0.5;stroke-dasharray:5.0,5.0;" x1="397" x2="397" y1="36.2969" y2="603.5547"></line><line style="stroke:#181818;stroke-width:0.5;stroke-dasharray:5.0,5.0;" x1="494" x2="494" y1="36.2969" y2="603.5547"></line><line style="stroke:#181818;stroke-width:0.5;stroke-dasharray:5.0,5.0;" x1="630" x2="630" y1="36.2969" y2="603.5547"></line><line style="stroke:#181818;stroke-width:0.5;stroke-dasharray:5.0,5.0;" x1="743" x2="743" y1="36.2969" y2="603.5547"></line><line style="stroke:#181818;stroke-width:0.5;stroke-dasharray:5.0,5.0;" x1="832" x2="832" y1="36.2969" y2="603.5547"></line><rect fill="#E2E2F0" height="30.2969" rx="2.5" ry="2.5" style="stroke:#181818;stroke-width:0.5;" width="113" x="5" y="5"></rect><text fill="#000000" font-family="sans-serif" font-size="14" lengthAdjust="spacing" textLength="99" x="12" y="24.9951">PrimaryScreen</text><rect fill="#E2E2F0" height="30.2969" rx="2.5" ry="2.5" style="stroke:#181818;stroke-width:0.5;" width="113" x="5" y="602.5547"></rect><text fill="#000000" font-family="sans-serif" font-size="14" lengthAdjust="spacing" textLength="99" x="12" y="622.5498">PrimaryScreen</text><rect fill="#E2E2F0" height="30.2969" rx="2.5" ry="2.5" style="stroke:#181818;stroke-width:0.5;" width="131" x="128" y="5"></rect><text fill="#000000" font-family="sans-serif" font-size="14" lengthAdjust="spacing" textLength="117" x="135" y="24.9951">GameplayScreen</text><rect fill="#E2E2F0" height="30.2969" rx="2.5" ry="2.5" style="stroke:#181818;stroke-width:0.5;" width="131" x="128" y="602.5547"></rect><text fill="#000000" font-family="sans-serif" font-size="14" lengthAdjust="spacing" textLength="117" x="135" y="622.5498">GameplayScreen</text><rect fill="#E2E2F0" height="30.2969" rx="2.5" ry="2.5" style="stroke:#181818;stroke-width:0.5;" width="57" x="369" y="5"></rect><text fill="#000000" font-family="sans-serif" font-size="14" lengthAdjust="spacing" textLength="43" x="376" y="24.9951">Pause</text><rect fill="#E2E2F0" height="30.2969" rx="2.5" ry="2.5" style="stroke:#181818;stroke-width:0.5;" width="57" x="369" y="602.5547"></rect><text fill="#000000" font-family="sans-serif" font-size="14" lengthAdjust="spacing" textLength="43" x="376" y="622.5498">Pause</text><rect fill="#E2E2F0" height="30.2969" rx="2.5" ry="2.5" style="stroke:#181818;stroke-width:0.5;" width="116" x="436" y="5"></rect><text fill="#000000" font-family="sans-serif" font-size="14" lengthAdjust="spacing" textLength="102" x="443" y="24.9951">LevelComplete</text><rect fill="#E2E2F0" height="30.2969" rx="2.5" ry="2.5" style="stroke:#181818;stroke-width:0.5;" width="116" x="436" y="602.5547"></rect><text fill="#000000" font-family="sans-serif" font-size="14" lengthAdjust="spacing" textLength="102" x="443" y="622.5498">LevelComplete</text><rect fill="#E2E2F0" height="30.2969" rx="2.5" ry="2.5" style="stroke:#181818;stroke-width:0.5;" width="136" x="562" y="5"></rect><text fill="#000000" font-family="sans-serif" font-size="14" lengthAdjust="spacing" textLength="122" x="569" y="24.9951">GameOverScreen</text><rect fill="#E2E2F0" height="30.2969" rx="2.5" ry="2.5" style="stroke:#181818;stroke-width:0.5;" width="136" x="562" y="602.5547"></rect><text fill="#000000" font-family="sans-serif" font-size="14" lengthAdjust="spacing" textLength="122" x="569" y="622.5498">GameOverScreen</text><rect fill="#E2E2F0" height="30.2969" rx="2.5" ry="2.5" style="stroke:#181818;stroke-width:0.5;" width="71" x="708" y="5"></rect><text fill="#000000" font-family="sans-serif" font-size="14" lengthAdjust="spacing" textLength="57" x="715" y="24.9951">Settings</text><rect fill="#E2E2F0" height="30.2969" rx="2.5" ry="2.5" style="stroke:#181818;stroke-width:0.5;" width="71" x="708" y="602.5547"></rect><text fill="#000000" font-family="sans-serif" font-size="14" lengthAdjust="spacing" textLength="57" x="715" y="622.5498">Settings</text><rect fill="#E2E2F0" height="30.2969" rx="2.5" ry="2.5" style="stroke:#181818;stroke-width:0.5;" width="86" x="789" y="5"></rect><text fill="#000000" font-family="sans-serif" font-size="14" lengthAdjust="spacing" textLength="72" x="796" y="24.9951">ContactUs</text><rect fill="#E2E2F0" height="30.2969" rx="2.5" ry="2.5" style="stroke:#181818;stroke-width:0.5;" width="86" x="789" y="602.5547"></rect><text fill="#000000" font-family="sans-serif" font-size="14" lengthAdjust="spacing" textLength="72" x="796" y="622.5498">ContactUs</text><polygon fill="#181818" points="181.5,63.4297,191.5,67.4297,181.5,71.4297,185.5,67.4297" style="stroke:#181818;stroke-width:1.0;"></polygon><line style="stroke:#181818;stroke-width:1.0;stroke-dasharray:2.0,2.0;" x1="61.5" x2="187.5" y1="67.4297" y2="67.4297"></line><text fill="#000000" font-family="sans-serif" font-size="13" lengthAdjust="spacing" textLength="79" x="68.5" y="62.3638">PlayButton()</text><line style="stroke:#181818;stroke-width:1.0;stroke-dasharray:2.0,2.0;" x1="193.5" x2="235.5" y1="96.5625" y2="96.5625"></line><line style="stroke:#181818;stroke-width:1.0;stroke-dasharray:2.0,2.0;" x1="235.5" x2="235.5" y1="96.5625" y2="109.5625"></line><line style="stroke:#181818;stroke-width:1.0;stroke-dasharray:2.0,2.0;" x1="194.5" x2="235.5" y1="109.5625" y2="109.5625"></line><polygon fill="#181818" points="204.5,105.5625,194.5,109.5625,204.5,113.5625,200.5,109.5625" style="stroke:#181818;stroke-width:1.0;"></polygon><text fill="#000000" font-family="sans-serif" font-size="13" lengthAdjust="spacing" textLength="73" x="200.5" y="91.4966">startLevel()</text><line style="stroke:#181818;stroke-width:1.0;stroke-dasharray:2.0,2.0;" x1="193.5" x2="235.5" y1="138.6953" y2="138.6953"></line><line style="stroke:#181818;stroke-width:1.0;stroke-dasharray:2.0,2.0;" x1="235.5" x2="235.5" y1="138.6953" y2="151.6953"></line><line style="stroke:#181818;stroke-width:1.0;stroke-dasharray:2.0,2.0;" x1="194.5" x2="235.5" y1="151.6953" y2="151.6953"></line><polygon fill="#181818" points="204.5,147.6953,194.5,151.6953,204.5,155.6953,200.5,151.6953" style="stroke:#181818;stroke-width:1.0;"></polygon><text fill="#000000" font-family="sans-serif" font-size="13" lengthAdjust="spacing" textLength="190" x="200.5" y="133.6294">pressNumberButton(number)</text><line style="stroke:#181818;stroke-width:1.0;stroke-dasharray:2.0,2.0;" x1="193.5" x2="235.5" y1="180.8281" y2="180.8281"></line><line style="stroke:#181818;stroke-width:1.0;stroke-dasharray:2.0,2.0;" x1="235.5" x2="235.5" y1="180.8281" y2="193.8281"></line><line style="stroke:#181818;stroke-width:1.0;stroke-dasharray:2.0,2.0;" x1="194.5" x2="235.5" y1="193.8281" y2="193.8281"></line><polygon fill="#181818" points="204.5,189.8281,194.5,193.8281,204.5,197.8281,200.5,193.8281" style="stroke:#181818;stroke-width:1.0;"></polygon><text fill="#000000" font-family="sans-serif" font-size="13" lengthAdjust="spacing" textLength="149" x="200.5" y="175.7622">updateUserInput(input)</text><line style="stroke:#181818;stroke-width:1.0;stroke-dasharray:2.0,2.0;" x1="193.5" x2="235.5" y1="222.9609" y2="222.9609"></line><line style="stroke:#181818;stroke-width:1.0;stroke-dasharray:2.0,2.0;" x1="235.5" x2="235.5" y1="222.9609" y2="235.9609"></line><line style="stroke:#181818;stroke-width:1.0;stroke-dasharray:2.0,2.0;" x1="194.5" x2="235.5" y1="235.9609" y2="235.9609"></line><polygon fill="#181818" points="204.5,231.9609,194.5,235.9609,204.5,239.9609,200.5,235.9609" style="stroke:#181818;stroke-width:1.0;"></polygon><text fill="#000000" font-family="sans-serif" font-size="13" lengthAdjust="spacing" textLength="134" x="200.5" y="217.895">pressSubmitButton()</text><polygon fill="#181818" points="385.5,261.0938,395.5,265.0938,385.5,269.0938,389.5,265.0938" style="stroke:#181818;stroke-width:1.0;"></polygon><line style="stroke:#181818;stroke-width:1.0;stroke-dasharray:2.0,2.0;" x1="193.5" x2="391.5" y1="265.0938" y2="265.0938"></line><text fill="#000000" font-family="sans-serif" font-size="13" lengthAdjust="spacing" textLength="88" x="200.5" y="260.0278">pauseGame()</text><polygon fill="#181818" points="204.5,290.2266,194.5,294.2266,204.5,298.2266,200.5,294.2266" style="stroke:#181818;stroke-width:1.0;"></polygon><line style="stroke:#181818;stroke-width:1.0;stroke-dasharray:2.0,2.0;" x1="198.5" x2="396.5" y1="294.2266" y2="294.2266"></line><text fill="#000000" font-family="sans-serif" font-size="13" lengthAdjust="spacing" textLength="98" x="210.5" y="289.1606">resumeGame()</text><polygon fill="#181818" points="204.5,319.3594,194.5,323.3594,204.5,327.3594,200.5,323.3594" style="stroke:#181818;stroke-width:1.0;"></polygon><line style="stroke:#181818;stroke-width:1.0;stroke-dasharray:2.0,2.0;" x1="198.5" x2="396.5" y1="323.3594" y2="323.3594"></line><text fill="#000000" font-family="sans-serif" font-size="13" lengthAdjust="spacing" textLength="92" x="210.5" y="318.2935">restartGame()</text><polygon fill="#181818" points="72.5,348.4922,62.5,352.4922,72.5,356.4922,68.5,352.4922" style="stroke:#181818;stroke-width:1.0;"></polygon><line style="stroke:#181818;stroke-width:1.0;stroke-dasharray:2.0,2.0;" x1="66.5" x2="396.5" y1="352.4922" y2="352.4922"></line><text fill="#000000" font-family="sans-serif" font-size="13" lengthAdjust="spacing" textLength="80" x="78.5" y="347.4263">goToHome()</text><polygon fill="#181818" points="482,377.625,492,381.625,482,385.625,486,381.625" style="stroke:#181818;stroke-width:1.0;"></polygon><line style="stroke:#181818;stroke-width:1.0;stroke-dasharray:2.0,2.0;" x1="193.5" x2="488" y1="381.625" y2="381.625"></line><text fill="#000000" font-family="sans-serif" font-size="13" lengthAdjust="spacing" textLength="94" x="200.5" y="376.5591">getNextLevel()</text><polygon fill="#181818" points="204.5,406.7578,194.5,410.7578,204.5,414.7578,200.5,410.7578" style="stroke:#181818;stroke-width:1.0;"></polygon><line style="stroke:#181818;stroke-width:1.0;stroke-dasharray:2.0,2.0;" x1="198.5" x2="493" y1="410.7578" y2="410.7578"></line><text fill="#000000" font-family="sans-serif" font-size="13" lengthAdjust="spacing" textLength="86" x="210.5" y="405.6919">restartLevel()</text><polygon fill="#181818" points="72.5,435.8906,62.5,439.8906,72.5,443.8906,68.5,439.8906" style="stroke:#181818;stroke-width:1.0;"></polygon><line style="stroke:#181818;stroke-width:1.0;stroke-dasharray:2.0,2.0;" x1="66.5" x2="493" y1="439.8906" y2="439.8906"></line><text fill="#000000" font-family="sans-serif" font-size="13" lengthAdjust="spacing" textLength="80" x="78.5" y="434.8247">goToHome()</text><polygon fill="#181818" points="618,465.0234,628,469.0234,618,473.0234,622,469.0234" style="stroke:#181818;stroke-width:1.0;"></polygon><line style="stroke:#181818;stroke-width:1.0;stroke-dasharray:2.0,2.0;" x1="193.5" x2="624" y1="469.0234" y2="469.0234"></line><text fill="#000000" font-family="sans-serif" font-size="13" lengthAdjust="spacing" textLength="77" x="200.5" y="463.9575">gameOver()</text><polygon fill="#181818" points="204.5,494.1563,194.5,498.1563,204.5,502.1563,200.5,498.1563" style="stroke:#181818;stroke-width:1.0;"></polygon><line style="stroke:#181818;stroke-width:1.0;stroke-dasharray:2.0,2.0;" x1="198.5" x2="629" y1="498.1563" y2="498.1563"></line><text fill="#000000" font-family="sans-serif" font-size="13" lengthAdjust="spacing" textLength="92" x="210.5" y="493.0903">restartGame()</text><polygon fill="#181818" points="72.5,523.2891,62.5,527.2891,72.5,531.2891,68.5,527.2891" style="stroke:#181818;stroke-width:1.0;"></polygon><line style="stroke:#181818;stroke-width:1.0;stroke-dasharray:2.0,2.0;" x1="66.5" x2="629" y1="527.2891" y2="527.2891"></line><text fill="#000000" font-family="sans-serif" font-size="13" lengthAdjust="spacing" textLength="80" x="78.5" y="522.2231">goToHome()</text><polygon fill="#181818" points="731.5,552.4219,741.5,556.4219,731.5,560.4219,735.5,556.4219" style="stroke:#181818;stroke-width:1.0;"></polygon><line style="stroke:#181818;stroke-width:1.0;stroke-dasharray:2.0,2.0;" x1="61.5" x2="737.5" y1="556.4219" y2="556.4219"></line><text fill="#000000" font-family="sans-serif" font-size="13" lengthAdjust="spacing" textLength="63" x="68.5" y="551.356">Settings()</text><polygon fill="#181818" points="820,581.5547,830,585.5547,820,589.5547,824,585.5547" style="stroke:#181818;stroke-width:1.0;"></polygon><line style="stroke:#181818;stroke-width:1.0;stroke-dasharray:2.0,2.0;" x1="61.5" x2="826" y1="585.5547" y2="585.5547"></line><text fill="#000000" font-family="sans-serif" font-size="13" lengthAdjust="spacing" textLength="77" x="68.5" y="580.4888">ContactUs()</text><!--SRC=[bP5D3e8m48Ntdg9BM7015YvaeIP6IP0359mG4lgJTahqzhODGOc5r4qxdVVDz7LQgfvHzQfQ1S09oR8zEL86Sg1JBYUbZGy6KV0atIt58A-HAhp024CSBnLeVJMi0JLTm_qXgjZ81qMeDQWpbmQJtgtnrrQcOJrklQwaHeEbtUPaI_bKiATjQLWKvcRqmvNVdv6JJjp5INWcOCnFk11C3e3MO0TuXUSyzuMwPMAzu2ytBdKRGStqT9xeZnGna431kfU5ujaA47lUwNoEWbWXED8MQylDOPA-0G00]--></g></svg>